<mxfile host="app.diagrams.net" agent="Mozilla/5.0 (Windows NT 10.0; Win64; x64) AppleWebKit/537.36 (KHTML, like Gecko) Chrome/136.0.0.0 Safari/537.36" version="26.2.9">
  <diagram name="Página-1" id="3fXdBLecQH_AaWAqgSYo">
    <mxGraphModel dx="860" dy="463" grid="1" gridSize="10" guides="1" tooltips="1" connect="1" arrows="1" fold="1" page="1" pageScale="1" pageWidth="827" pageHeight="1169" math="0" shadow="0">
      <root>
        <mxCell id="0" />
        <mxCell id="1" parent="0" />
        <mxCell id="rGhAQSl93AWbd_XATUFk-13" style="edgeStyle=orthogonalEdgeStyle;shape=connector;rounded=0;orthogonalLoop=1;jettySize=auto;html=1;entryX=0.5;entryY=0;entryDx=0;entryDy=0;strokeColor=default;align=center;verticalAlign=middle;fontFamily=Helvetica;fontSize=11;fontColor=default;labelBackgroundColor=default;endArrow=open;endFill=0;" edge="1" parent="1" source="TF14g87zeyce2me1rqzu-1" target="TF14g87zeyce2me1rqzu-2">
          <mxGeometry relative="1" as="geometry" />
        </mxCell>
        <mxCell id="TF14g87zeyce2me1rqzu-1" value="" style="ellipse;fillColor=strokeColor;html=1;" parent="1" vertex="1">
          <mxGeometry x="430" y="20" width="30" height="30" as="geometry" />
        </mxCell>
        <mxCell id="rGhAQSl93AWbd_XATUFk-12" style="edgeStyle=orthogonalEdgeStyle;shape=connector;rounded=0;orthogonalLoop=1;jettySize=auto;html=1;entryX=0.5;entryY=0;entryDx=0;entryDy=0;strokeColor=default;align=center;verticalAlign=middle;fontFamily=Helvetica;fontSize=11;fontColor=default;labelBackgroundColor=default;endArrow=open;endFill=0;" edge="1" parent="1" source="TF14g87zeyce2me1rqzu-2" target="TF14g87zeyce2me1rqzu-4">
          <mxGeometry relative="1" as="geometry" />
        </mxCell>
        <mxCell id="TF14g87zeyce2me1rqzu-2" value="editor verifica revista" style="html=1;align=center;verticalAlign=top;rounded=1;absoluteArcSize=1;arcSize=10;dashed=0;whiteSpace=wrap;" parent="1" vertex="1">
          <mxGeometry x="375" y="80" width="140" height="40" as="geometry" />
        </mxCell>
        <mxCell id="TF14g87zeyce2me1rqzu-4" value="Sistema verifica&amp;nbsp;artigos que estão em condições de ser publicados" style="html=1;align=center;verticalAlign=top;rounded=1;absoluteArcSize=1;arcSize=10;dashed=0;whiteSpace=wrap;" parent="1" vertex="1">
          <mxGeometry x="375" y="180" width="140" height="60" as="geometry" />
        </mxCell>
        <mxCell id="TF14g87zeyce2me1rqzu-13" style="edgeStyle=orthogonalEdgeStyle;rounded=0;orthogonalLoop=1;jettySize=auto;html=1;entryX=0.5;entryY=0;entryDx=0;entryDy=0;endArrow=open;endFill=0;" parent="1" source="TF14g87zeyce2me1rqzu-8" target="TF14g87zeyce2me1rqzu-11" edge="1">
          <mxGeometry relative="1" as="geometry" />
        </mxCell>
        <mxCell id="TF14g87zeyce2me1rqzu-8" value="editor informa limite de artigos" style="html=1;align=center;verticalAlign=top;rounded=1;absoluteArcSize=1;arcSize=10;dashed=0;whiteSpace=wrap;" parent="1" vertex="1">
          <mxGeometry x="380" y="280" width="140" height="40" as="geometry" />
        </mxCell>
        <mxCell id="TF14g87zeyce2me1rqzu-16" style="edgeStyle=orthogonalEdgeStyle;rounded=0;orthogonalLoop=1;jettySize=auto;html=1;" parent="1" source="TF14g87zeyce2me1rqzu-11" edge="1">
          <mxGeometry relative="1" as="geometry">
            <mxPoint x="620" y="385" as="targetPoint" />
          </mxGeometry>
        </mxCell>
        <mxCell id="TF14g87zeyce2me1rqzu-17" value="[limite atingido]" style="edgeLabel;html=1;align=center;verticalAlign=middle;resizable=0;points=[];" parent="TF14g87zeyce2me1rqzu-16" vertex="1" connectable="0">
          <mxGeometry x="-0.2909" y="4" relative="1" as="geometry">
            <mxPoint x="16" y="-11" as="offset" />
          </mxGeometry>
        </mxCell>
        <mxCell id="rGhAQSl93AWbd_XATUFk-6" style="edgeStyle=orthogonalEdgeStyle;shape=connector;rounded=0;orthogonalLoop=1;jettySize=auto;html=1;entryX=0;entryY=0.5;entryDx=0;entryDy=0;strokeColor=default;align=center;verticalAlign=middle;fontFamily=Helvetica;fontSize=11;fontColor=default;labelBackgroundColor=default;endArrow=open;endFill=0;" edge="1" parent="1" source="TF14g87zeyce2me1rqzu-11" target="rGhAQSl93AWbd_XATUFk-3">
          <mxGeometry relative="1" as="geometry">
            <Array as="points">
              <mxPoint x="270" y="385" />
              <mxPoint x="270" y="555" />
            </Array>
          </mxGeometry>
        </mxCell>
        <mxCell id="rGhAQSl93AWbd_XATUFk-8" value="l[menor ou igual ao limite]" style="edgeLabel;html=1;align=center;verticalAlign=middle;resizable=0;points=[];fontFamily=Helvetica;fontSize=11;fontColor=default;labelBackgroundColor=default;" vertex="1" connectable="0" parent="rGhAQSl93AWbd_XATUFk-6">
          <mxGeometry x="-0.62" y="-4" relative="1" as="geometry">
            <mxPoint as="offset" />
          </mxGeometry>
        </mxCell>
        <mxCell id="TF14g87zeyce2me1rqzu-11" value="" style="rhombus;" parent="1" vertex="1">
          <mxGeometry x="435" y="370" width="30" height="30" as="geometry" />
        </mxCell>
        <mxCell id="rGhAQSl93AWbd_XATUFk-5" style="edgeStyle=orthogonalEdgeStyle;shape=connector;rounded=0;orthogonalLoop=1;jettySize=auto;html=1;entryX=1;entryY=0.5;entryDx=0;entryDy=0;strokeColor=default;align=center;verticalAlign=middle;fontFamily=Helvetica;fontSize=11;fontColor=default;labelBackgroundColor=default;endArrow=open;endFill=0;" edge="1" parent="1" source="TF14g87zeyce2me1rqzu-15" target="rGhAQSl93AWbd_XATUFk-3">
          <mxGeometry relative="1" as="geometry">
            <Array as="points">
              <mxPoint x="665" y="555" />
            </Array>
          </mxGeometry>
        </mxCell>
        <mxCell id="rGhAQSl93AWbd_XATUFk-7" value="[numeros de artigos completados]" style="edgeLabel;html=1;align=center;verticalAlign=middle;resizable=0;points=[];fontFamily=Helvetica;fontSize=11;fontColor=default;labelBackgroundColor=default;" vertex="1" connectable="0" parent="rGhAQSl93AWbd_XATUFk-5">
          <mxGeometry x="-0.4788" y="-4" relative="1" as="geometry">
            <mxPoint x="99" y="-21" as="offset" />
          </mxGeometry>
        </mxCell>
        <mxCell id="TF14g87zeyce2me1rqzu-15" value="sistema verifica quais são aqueles que foram enviados há&lt;br/&gt;mais tempo" style="html=1;align=center;verticalAlign=top;rounded=1;absoluteArcSize=1;arcSize=10;dashed=0;whiteSpace=wrap;" parent="1" vertex="1">
          <mxGeometry x="590" y="355" width="150" height="70" as="geometry" />
        </mxCell>
        <mxCell id="rGhAQSl93AWbd_XATUFk-10" style="edgeStyle=orthogonalEdgeStyle;shape=connector;rounded=0;orthogonalLoop=1;jettySize=auto;html=1;strokeColor=default;align=center;verticalAlign=middle;fontFamily=Helvetica;fontSize=11;fontColor=default;labelBackgroundColor=default;endArrow=open;endFill=0;" edge="1" parent="1" source="rGhAQSl93AWbd_XATUFk-3" target="rGhAQSl93AWbd_XATUFk-9">
          <mxGeometry relative="1" as="geometry" />
        </mxCell>
        <mxCell id="rGhAQSl93AWbd_XATUFk-3" value="" style="rhombus;" vertex="1" parent="1">
          <mxGeometry x="435" y="540" width="30" height="30" as="geometry" />
        </mxCell>
        <mxCell id="rGhAQSl93AWbd_XATUFk-15" style="edgeStyle=orthogonalEdgeStyle;shape=connector;rounded=0;orthogonalLoop=1;jettySize=auto;html=1;entryX=0.5;entryY=0;entryDx=0;entryDy=0;strokeColor=default;align=center;verticalAlign=middle;fontFamily=Helvetica;fontSize=11;fontColor=default;labelBackgroundColor=default;endArrow=open;endFill=0;" edge="1" parent="1" source="rGhAQSl93AWbd_XATUFk-9" target="rGhAQSl93AWbd_XATUFk-14">
          <mxGeometry relative="1" as="geometry" />
        </mxCell>
        <mxCell id="rGhAQSl93AWbd_XATUFk-9" value="edição criada" style="html=1;align=center;verticalAlign=top;rounded=1;absoluteArcSize=1;arcSize=10;dashed=0;whiteSpace=wrap;" vertex="1" parent="1">
          <mxGeometry x="380" y="610" width="140" height="40" as="geometry" />
        </mxCell>
        <mxCell id="rGhAQSl93AWbd_XATUFk-11" style="edgeStyle=orthogonalEdgeStyle;shape=connector;rounded=0;orthogonalLoop=1;jettySize=auto;html=1;entryX=0.457;entryY=0.075;entryDx=0;entryDy=0;entryPerimeter=0;strokeColor=default;align=center;verticalAlign=middle;fontFamily=Helvetica;fontSize=11;fontColor=default;labelBackgroundColor=default;endArrow=open;endFill=0;exitX=0.464;exitY=1;exitDx=0;exitDy=0;exitPerimeter=0;" edge="1" parent="1" source="TF14g87zeyce2me1rqzu-4" target="TF14g87zeyce2me1rqzu-8">
          <mxGeometry relative="1" as="geometry" />
        </mxCell>
        <mxCell id="rGhAQSl93AWbd_XATUFk-14" value="" style="ellipse;html=1;shape=endState;fillColor=strokeColor;fontFamily=Helvetica;fontSize=11;fontColor=default;labelBackgroundColor=default;" vertex="1" parent="1">
          <mxGeometry x="435" y="690" width="30" height="30" as="geometry" />
        </mxCell>
      </root>
    </mxGraphModel>
  </diagram>
</mxfile>
